<?xml version="1.0" standalone="no"?>
<!DOCTYPE svg PUBLIC "-//W3C//DTD SVG 20010904//EN"
 "http://www.w3.org/TR/2001/REC-SVG-20010904/DTD/svg10.dtd">
<svg version="1.0" xmlns="http://www.w3.org/2000/svg"
 width="256.000000pt" height="256.000000pt" viewBox="0 0 256.000000 256.000000"
 preserveAspectRatio="xMidYMid meet">

<g transform="translate(0.000000,256.000000) scale(0.100000,-0.100000)"
fill="#000000" stroke="none">
<path d="M1095 2546 c-430 -72 -783 -332 -965 -710 -90 -188 -125 -341 -125
-556 0 -224 36 -375 136 -576 173 -348 501 -596 899 -681 118 -25 362 -25 480
0 523 112 905 494 1017 1017 25 118 25 362 0 480 -58 272 -186 503 -381 687
-177 168 -387 277 -631 328 -107 23 -327 28 -430 11z m509 -1764 c-178 -1
-470 -1 -648 0 l-324 3 317 570 c174 314 320 576 325 583 6 10 109 -168 331
-570 l324 -583 -325 -3z"/>
</g>
</svg>
