<?xml version="1.0" standalone="no"?>
<!DOCTYPE svg PUBLIC "-//W3C//DTD SVG 20010904//EN"
 "http://www.w3.org/TR/2001/REC-SVG-20010904/DTD/svg10.dtd">
<svg version="1.0" xmlns="http://www.w3.org/2000/svg"
 width="1280.000000pt" height="1280.000000pt" viewBox="0 0 1280.000000 1280.000000"
 preserveAspectRatio="xMidYMid meet">

<g transform="translate(0.000000,1280.000000) scale(0.100000,-0.100000)"
fill="#000000" stroke="none">
<path d="M3940 9300 c-19 -4 -98 -11 -175 -14 -77 -4 -169 -11 -205 -17 -57
-9 -191 -25 -380 -44 -30 -3 -88 -12 -129 -20 -40 -8 -88 -15 -107 -15 -45 0
-44 -17 2 -26 35 -6 183 1 235 11 39 8 243 33 374 45 66 6 143 13 170 16 231
24 756 31 982 14 134 -10 289 -30 403 -51 30 -5 107 -18 171 -28 63 -11 144
-26 180 -34 35 -8 98 -21 139 -27 41 -7 120 -23 175 -36 67 -16 103 -20 109
-14 22 22 -11 45 -90 63 -43 11 -88 23 -99 28 -11 4 -54 13 -95 18 -41 5 -95
15 -120 21 -25 6 -90 17 -145 25 -55 8 -158 23 -230 34 -363 54 -479 62 -820
60 -170 -1 -326 -5 -345 -9z"/>
<path d="M7141 9091 c-8 -5 -9 -11 -3 -15 5 -3 12 1 16 9 6 17 6 18 -13 6z"/>
<path d="M2546 8958 c-9 -12 -16 -28 -16 -35 0 -7 -5 -22 -12 -33 -9 -15 -9
-30 1 -69 17 -67 18 -80 32 -266 6 -88 15 -169 20 -180 5 -11 11 -81 13 -155
2 -74 6 -142 10 -150 3 -8 7 -44 10 -80 8 -109 27 -253 36 -285 5 -16 12 -73
15 -125 4 -52 13 -160 20 -240 32 -343 36 -388 39 -450 3 -58 31 -346 40 -425
2 -16 9 -75 15 -130 6 -55 13 -118 16 -140 4 -22 8 -67 10 -100 1 -33 6 -85 9
-115 21 -177 28 -240 31 -285 2 -27 9 -106 15 -175 6 -69 12 -139 13 -157 1
-17 5 -35 10 -39 4 -4 7 -34 7 -67 0 -63 24 -314 41 -427 5 -36 14 -105 19
-155 5 -49 13 -112 16 -140 9 -64 6 -109 -6 -113 -13 -5 -13 -68 0 -92 5 -10
12 -37 14 -60 2 -22 6 -43 9 -47 4 -3 3 -13 -2 -22 -9 -19 6 -101 20 -101 5 0
7 18 4 39 -3 27 0 45 10 55 18 18 21 164 5 278 -15 112 -48 399 -60 528 -6 63
-13 133 -15 155 -13 125 -26 248 -40 390 -8 88 -17 167 -20 175 -2 8 -11 102
-20 209 -9 107 -19 199 -23 205 -3 6 -7 48 -8 94 -1 45 -7 122 -13 170 -6 48
-16 143 -21 212 -27 315 -40 472 -50 560 -5 52 -12 124 -15 160 -3 36 -10 103
-16 150 -5 47 -12 110 -15 140 -2 30 -9 96 -14 145 -5 50 -16 185 -25 300 -8
116 -18 230 -20 255 -3 25 -12 122 -20 215 -15 177 -33 323 -40 336 -3 4 2 26
10 49 8 23 15 46 15 51 0 18 -39 8 -54 -13z"/>
<path d="M9834 8384 c37 -35 51 -43 60 -34 11 12 6 17 -21 23 -4 1 -20 14 -36
30 -15 15 -33 27 -39 27 -6 0 10 -21 36 -46z"/>
<path d="M9921 8313 c39 -47 167 -191 193 -217 38 -37 210 -239 258 -302 110
-144 238 -339 298 -453 204 -389 262 -530 345 -836 39 -143 65 -295 76 -440
10 -138 0 -446 -18 -555 -7 -47 -13 -107 -12 -135 1 -27 -4 -61 -11 -75 -7
-13 -13 -51 -13 -84 1 -57 -27 -136 -47 -136 -14 0 -22 -53 -10 -60 9 -5 9 -9
1 -14 -6 -4 -11 -18 -11 -31 0 -13 -10 -31 -22 -39 -14 -10 -17 -16 -8 -16 11
0 11 -3 2 -12 -7 -7 -12 -27 -12 -46 0 -20 -4 -31 -10 -27 -7 4 -9 -2 -5 -18
5 -19 2 -28 -13 -36 -12 -6 -24 -21 -28 -33 -6 -21 -14 -33 -45 -67 -29 -33
-76 -105 -113 -176 -20 -38 -64 -110 -97 -160 -32 -49 -72 -112 -87 -139 -15
-27 -41 -65 -57 -85 -17 -20 -44 -56 -60 -80 -16 -24 -44 -58 -62 -75 -18 -17
-33 -34 -33 -39 0 -5 -14 -22 -31 -39 -24 -25 -30 -37 -25 -59 4 -23 -1 -32
-29 -54 -19 -14 -42 -39 -50 -56 -11 -20 -23 -29 -40 -29 -18 0 -26 -7 -31
-25 -3 -14 -4 -31 -1 -39 3 -8 1 -17 -6 -20 -7 -2 -5 -5 5 -5 9 -1 23 6 32 14
17 17 52 20 61 5 3 -5 1 -10 -4 -10 -6 0 -10 -6 -8 -12 1 -9 -15 -13 -55 -14
-32 -1 -70 -7 -86 -13 -33 -14 -66 -65 -57 -89 3 -9 3 -41 -1 -72 -4 -30 -9
-49 -12 -42 -3 10 -7 9 -17 -4 -11 -15 -13 -13 -19 18 -3 20 -2 48 4 63 11 30
1 45 -30 45 -33 0 -96 -29 -118 -56 -13 -15 -34 -28 -45 -29 -33 -3 -69 -20
-98 -47 -14 -13 -44 -30 -67 -37 -23 -8 -42 -18 -42 -23 0 -4 -9 -8 -21 -8
-15 0 -19 -5 -15 -15 5 -13 -9 -20 -35 -17 -4 1 -17 -10 -29 -23 -15 -16 -35
-25 -54 -25 -41 0 -77 -10 -71 -20 3 -4 -7 -7 -22 -7 -14 0 -31 -7 -37 -14 -6
-8 -23 -13 -38 -11 -21 2 -28 -1 -28 -13 0 -9 -5 -13 -11 -10 -5 4 -18 0 -27
-8 -22 -18 -60 -27 -147 -32 -38 -3 -108 -13 -155 -24 -241 -55 -619 -116
-880 -143 -118 -12 -154 -27 -69 -30 29 0 61 0 69 1 24 4 149 2 225 -4 116 -9
197 -10 250 -2 28 4 91 12 140 17 50 6 107 13 128 16 29 5 37 3 37 -9 0 -9 -9
-18 -19 -22 -23 -7 -36 -35 -17 -35 11 0 12 -7 7 -28 -5 -20 -15 -28 -34 -30
-33 -4 -34 -15 -3 -39 13 -11 25 -28 27 -39 2 -10 14 -23 27 -29 12 -5 22 -18
22 -27 0 -32 19 -19 26 16 5 27 10 33 22 28 35 -13 64 -62 37 -62 -8 0 -15 -7
-15 -15 0 -16 -12 -20 -24 -8 -14 14 -35 11 -34 -5 0 -10 -3 -29 -7 -44 -8
-31 10 -39 34 -15 10 10 11 8 5 -8 -4 -11 -17 -29 -30 -41 -41 -39 -46 -59
-45 -194 0 -14 4 -41 8 -60 7 -28 13 -34 30 -32 14 2 23 -4 28 -17 3 -12 18
-24 33 -28 15 -3 33 -12 40 -20 7 -7 20 -13 28 -13 8 0 14 -4 14 -10 0 -5 9
-10 21 -10 11 0 27 -7 35 -15 13 -12 12 -17 -7 -36 -18 -18 -24 -19 -44 -9
-19 10 -27 9 -51 -6 -16 -10 -32 -23 -36 -29 -7 -10 -11 -11 -42 -14 -8 0 -19
-16 -26 -33 -6 -18 -33 -58 -61 -88 l-51 -55 6 -72 c4 -51 1 -81 -9 -107 -16
-38 -20 -77 -7 -75 19 3 33 -2 28 -10 -4 -5 4 -7 16 -3 21 5 22 4 9 -11 -12
-15 -11 -20 9 -37 13 -11 31 -20 42 -20 11 0 18 -7 18 -19 0 -26 25 -33 75
-21 25 6 44 5 49 0 6 -6 25 -10 43 -10 23 0 37 -7 47 -23 15 -22 15 -31 1 -74
l-7 -22 -23 25 c-22 23 -42 33 -31 15 3 -5 -6 -12 -19 -15 -14 -4 -23 -10 -20
-15 2 -5 -2 -11 -10 -15 -18 -6 -20 -56 -3 -56 6 0 8 -3 5 -7 -4 -3 -2 -12 3
-18 7 -9 6 -16 -4 -24 -9 -8 -12 -25 -9 -54 4 -33 0 -48 -16 -67 l-21 -25 -6
22 c-12 43 -54 23 -54 -25 0 -8 -8 -24 -17 -34 -13 -14 -17 -39 -18 -104 -1
-47 2 -87 7 -90 15 -10 8 -43 -14 -64 l-23 -21 22 -17 c20 -15 22 -25 20 -89
-1 -40 1 -73 6 -73 4 0 5 -4 2 -10 -3 -5 -14 -10 -25 -10 -10 0 -21 -7 -24
-15 -8 -21 42 -45 53 -27 4 8 15 10 26 6 13 -5 16 -4 11 4 -5 8 -2 10 8 6 9
-4 16 -1 16 6 0 7 7 10 14 7 11 -4 13 -1 9 11 -5 13 -3 14 6 6 9 -9 27 -6 69
9 31 11 60 24 63 29 3 5 8 9 10 8 10 -4 147 58 312 141 22 10 45 19 52 19 8 0
20 6 27 13 22 21 68 48 68 40 0 -5 4 -3 8 2 4 6 18 16 32 23 14 6 54 30 90 51
36 22 84 49 107 60 23 12 45 26 48 31 4 6 23 20 43 31 97 54 212 130 212 140
0 5 5 9 11 9 6 0 42 23 80 50 38 28 73 50 79 50 6 0 23 12 38 27 16 16 45 42
66 58 21 17 53 42 71 58 18 15 36 27 40 27 4 0 16 11 27 25 11 14 24 25 29 25
10 0 45 30 138 117 31 29 60 53 64 53 4 0 30 23 58 50 27 28 54 50 59 50 6 0
10 5 10 11 0 16 26 39 44 39 9 0 18 11 22 25 4 18 13 25 30 25 14 0 24 6 24
14 0 8 8 22 17 31 9 10 18 33 20 53 2 19 9 44 14 55 6 10 8 34 4 53 -4 21 0
46 9 67 30 68 35 100 25 167 -21 144 -22 166 -5 198 9 17 16 39 16 49 0 20
-52 83 -68 83 -5 0 -12 16 -15 35 -3 20 -15 44 -27 53 -17 14 -20 23 -14 46 4
16 15 31 25 33 11 3 19 14 19 24 0 11 4 19 9 19 20 0 39 253 21 275 -10 11
-10 21 -1 42 10 24 16 83 20 195 1 20 7 27 24 30 12 2 26 13 32 26 6 14 18 22
34 22 13 0 45 8 72 17 50 18 61 32 74 100 8 38 41 83 61 83 8 0 14 4 14 9 0 9
43 35 111 66 30 13 39 25 49 60 7 24 9 48 6 53 -3 6 1 36 9 69 8 32 16 74 18
93 3 19 9 36 16 38 6 2 11 10 11 19 0 27 79 93 126 104 24 6 44 16 44 21 0 17
53 58 74 58 12 0 26 4 32 9 5 5 25 12 45 16 26 5 39 2 48 -9 9 -10 30 -16 60
-16 25 0 55 -7 65 -15 11 -8 30 -15 42 -15 38 0 95 -47 131 -106 18 -30 33
-59 33 -64 0 -5 9 -14 20 -20 11 -6 20 -15 20 -21 0 -5 5 -16 12 -23 10 -10
16 -5 30 22 9 19 15 39 12 43 -2 4 5 13 16 19 11 6 20 21 20 33 0 13 9 41 20
62 12 22 26 60 32 85 6 25 14 47 18 50 3 3 14 32 24 65 9 33 21 67 25 75 4 8
16 47 26 85 10 39 23 73 28 76 5 4 7 19 3 33 -4 18 -2 26 7 26 8 0 17 27 25
77 6 42 17 80 23 84 6 4 8 12 4 18 -4 7 -2 18 4 25 6 8 14 44 17 82 3 38 11
93 19 121 8 35 10 55 3 59 -5 4 -8 17 -5 30 2 14 0 27 -4 30 -5 3 -6 16 -3 30
5 18 2 24 -10 24 -9 0 -16 5 -16 10 0 6 3 10 8 10 7 0 11 28 12 78 0 24 -27
72 -41 72 -5 0 -9 -15 -9 -33 0 -21 -8 -41 -20 -52 -18 -16 -23 -17 -45 -5
-29 15 -32 25 -10 34 20 7 19 32 -1 40 -8 3 -26 3 -39 0 -12 -3 -26 -1 -29 5
-12 19 -32 12 -44 -14 -7 -15 -8 -25 -2 -25 6 0 10 -4 10 -10 0 -5 -6 -10 -14
-10 -10 0 -13 9 -11 30 5 34 -9 47 -31 29 -9 -8 -13 -21 -10 -35 4 -13 2 -25
-3 -28 -4 -3 -6 -28 -3 -56 3 -33 1 -50 -7 -50 -6 0 -11 -9 -11 -20 0 -13 -7
-20 -20 -20 -25 0 -26 25 -2 39 15 9 14 10 -6 11 -13 0 -37 9 -53 21 -35 25
-39 11 -4 -15 l25 -19 -27 -17 c-34 -21 -43 -11 -36 41 5 34 3 39 -15 39 -11
0 -24 5 -27 10 -10 16 -95 13 -95 -4 0 -8 5 -18 10 -21 6 -3 10 -1 10 4 0 6 4
11 10 11 17 0 6 -24 -15 -34 -23 -11 -23 -11 -52 -1 -19 5 -23 2 -23 -14 0
-22 -27 -35 -56 -25 -17 5 -17 4 1 -7 28 -18 35 -31 23 -46 -6 -7 -8 -24 -6
-38 3 -14 1 -25 -3 -25 -5 0 -9 10 -10 23 0 21 -1 21 -9 2 -5 -11 -9 -15 -10
-10 -5 37 -11 50 -26 64 -15 15 -16 15 -11 -2 8 -21 -20 -70 -36 -64 -6 2 -19
-13 -29 -32 -22 -43 -22 -41 2 -41 11 0 20 -3 20 -6 0 -14 -42 -64 -54 -64 -7
0 -19 -15 -27 -32 -8 -18 -20 -32 -27 -31 -6 2 -11 0 -10 -5 2 -9 -10 -49 -25
-82 -23 -50 -104 -109 -128 -94 -18 11 -65 -7 -74 -29 -6 -12 -20 -23 -32 -25
-18 -3 -22 2 -25 30 -2 24 -8 33 -20 32 -10 -1 -14 4 -11 11 6 18 -29 12 -38
-6 -5 -8 -11 -32 -14 -54 -6 -36 -8 -38 -20 -21 -8 10 -18 15 -24 11 -16 -9
-14 -35 2 -35 8 0 19 -11 26 -24 11 -19 10 -28 -1 -47 -25 -44 -42 -53 -117
-61 -8 -1 -16 -10 -19 -20 -5 -20 -29 -19 -25 1 2 6 -2 11 -8 11 -5 0 -7 5 -4
11 4 6 -3 5 -16 -3 -31 -18 -45 -31 -51 -48 -4 -13 -23 28 -30 65 -2 15 -29
39 -45 41 -8 2 -13 -5 -11 -15 2 -10 -2 -24 -8 -32 -16 -21 -26 -67 -15 -74 6
-3 9 -24 8 -46 -1 -30 4 -45 18 -55 16 -12 16 -14 3 -14 -9 0 -18 -5 -20 -11
-2 -7 -12 -7 -30 0 -23 9 -30 7 -41 -9 -8 -11 -17 -17 -20 -13 -12 11 -8 23 8
23 8 0 15 7 15 15 0 8 4 15 10 15 5 0 7 7 4 15 -4 8 -10 15 -16 15 -13 0 -38
-26 -38 -39 0 -6 -4 -11 -10 -11 -5 0 -10 -7 -10 -15 0 -9 -9 -15 -21 -15 -14
0 -19 5 -16 14 3 7 -1 23 -9 34 -13 19 -9 28 44 114 32 51 73 128 91 171 19
43 38 80 42 83 5 3 9 -13 9 -35 0 -34 3 -41 19 -41 10 0 26 11 35 25 15 23 15
28 2 53 -9 15 -15 21 -16 15 0 -7 -5 -13 -11 -13 -29 0 32 229 73 275 35 39
38 43 26 47 -6 2 -8 10 -4 17 6 9 11 8 22 -6 12 -16 13 -13 9 23 -2 23 1 61 6
85 14 62 17 85 29 249 11 153 10 220 -2 220 -5 0 -8 12 -8 28 0 18 3 23 9 14
7 -11 9 -11 14 1 12 31 -15 525 -34 632 -17 93 -40 195 -56 250 -8 28 -24 82
-35 120 -32 109 -78 238 -93 261 -7 12 -17 37 -20 58 -9 44 -41 123 -78 191
-15 28 -39 74 -54 102 -16 29 -62 105 -103 169 -74 115 -103 161 -124 199 -17
30 -77 113 -108 147 -16 17 -28 34 -28 39 0 14 -121 153 -196 226 -41 39 -74
79 -74 87 0 9 -3 16 -7 16 -5 0 -32 23 -62 50 -29 28 -56 50 -60 50 -4 0 -14
11 -21 25 -7 14 -22 25 -32 25 -10 0 -18 5 -18 11 0 5 -4 7 -10 4 -5 -3 -10
-1 -10 4 0 6 -5 11 -12 11 -7 0 -6 -6 3 -17z m1216 -2635 c-3 -7 -5 -2 -5 12
0 14 2 19 5 13 2 -7 2 -19 0 -25z m1346 -475 c-7 -2 -19 -2 -25 0 -7 3 -2 5
12 5 14 0 19 -2 13 -5z m17 -43 c0 -5 -4 -10 -10 -10 -5 0 -10 5 -10 10 0 6 5
10 10 10 6 0 10 -4 10 -10z m-485 -40 c-3 -5 -10 -10 -16 -10 -5 0 -9 5 -9 10
0 6 7 10 16 10 8 0 12 -4 9 -10z m-1018 -82 c-3 -8 -6 -5 -6 6 -1 11 2 17 5
13 3 -3 4 -12 1 -19z m-247 -741 c0 -15 -40 -61 -47 -54 -2 3 3 19 12 36 16
32 35 41 35 18z m-1668 -2027 c2 -5 21 -11 43 -12 34 -3 40 -7 43 -28 2 -14 8
-29 13 -34 14 -15 11 -46 -4 -46 -8 0 -27 11 -43 25 -27 23 -33 26 -51 24 -10
-1 -34 62 -27 72 7 12 21 11 26 -1z m-392 -480 c0 -16 -4 -30 -10 -30 -5 0
-10 14 -10 30 0 17 5 30 10 30 6 0 10 -13 10 -30z m154 -1152 c1 -22 -1 -25
-16 -17 -9 5 -26 9 -37 9 -15 0 -21 6 -21 21 0 17 5 20 37 17 32 -3 37 -6 37
-30z m-97 -94 c-3 -3 -12 -4 -19 -1 -8 3 -5 6 6 6 11 1 17 -2 13 -5z"/>
<path d="M7193 7745 c0 -22 2 -30 4 -17 2 12 2 30 0 40 -3 9 -5 -1 -4 -23z"/>
<path d="M8483 7719 c-37 -24 -39 -28 -18 -55 12 -16 16 -17 24 -5 5 8 21 19
36 25 27 11 27 12 9 34 l-19 22 -32 -21z"/>
<path d="M7202 7630 c0 -14 2 -19 5 -12 2 6 2 18 0 25 -3 6 -5 1 -5 -13z"/>
<path d="M7190 7588 c0 -1 -2 -219 -4 -483 -2 -265 -11 -608 -19 -765 -24
-416 -27 -630 -10 -630 8 0 14 14 15 38 0 20 2 51 3 67 2 17 5 86 9 155 3 69
11 161 16 205 13 105 28 463 35 800 6 299 -11 605 -32 613 -7 2 -13 2 -13 0z"/>
<path d="M8461 7473 c0 -58 3 -81 9 -68 12 28 12 143 0 150 -6 4 -10 -26 -9
-82z"/>
<path d="M1815 7333 c-27 -30 -41 -79 -31 -110 8 -25 -14 -44 -76 -67 -58 -21
-98 -58 -98 -89 0 -14 16 -47 35 -75 37 -54 34 -61 -23 -63 -15 0 -45 -11 -67
-25 -22 -13 -47 -26 -56 -30 -21 -7 -30 -62 -15 -89 6 -11 12 -22 13 -23 3 -7
81 -23 186 -37 117 -16 208 -10 314 21 55 16 56 17 32 29 -39 20 -97 27 -216
26 -95 0 -111 2 -106 14 6 16 3 16 148 45 186 37 298 81 281 109 -10 15 -32
14 -128 -9 -111 -26 -139 -26 -168 5 l-23 24 32 74 c26 60 39 77 75 99 47 28
81 86 72 122 -3 13 -18 35 -32 49 -22 22 -36 27 -75 27 -40 0 -53 -5 -74 -27z
m-45 -261 c0 -10 -6 -27 -14 -37 -12 -16 -16 -17 -30 -6 -23 19 -20 40 7 51
32 13 37 12 37 -8z"/>
<path d="M9270 7342 c0 -22 30 -52 53 -52 8 0 29 -11 45 -25 17 -14 34 -25 39
-25 5 0 17 -18 27 -40 17 -40 51 -57 44 -22 -2 9 -10 16 -16 14 -7 -1 -16 8
-21 20 -5 13 -36 51 -70 86 -61 63 -101 80 -101 44z"/>
<path d="M3796 7303 c-26 -144 -27 -167 -9 -201 22 -40 43 -47 158 -46 50 0
214 1 365 2 451 3 875 -18 929 -47 10 -6 22 -23 26 -38 9 -39 34 -75 46 -67
15 9 3 67 -22 109 -25 42 -58 52 -190 58 -53 2 -101 7 -107 11 -7 4 -78 9
-159 11 -82 2 -184 9 -228 15 -44 7 -100 9 -125 6 -39 -5 -203 -6 -465 -2 -38
1 -82 -2 -97 -7 -21 -6 -32 -3 -48 13 -11 11 -24 20 -29 20 -17 0 -23 40 -16
100 5 44 3 64 -8 80 -14 20 -15 19 -21 -17z"/>
<path d="M2166 6965 c-6 -17 16 -31 33 -21 13 9 2 36 -14 36 -7 0 -16 -7 -19
-15z"/>
<path d="M5324 6830 c3 -30 5 -63 6 -73 0 -11 5 -15 11 -11 7 4 9 26 4 63 -9
75 -29 95 -21 21z"/>
<path d="M2123 6803 c-25 -5 -27 -11 -14 -31 9 -14 28 -13 47 3 11 10 8 36 -5
34 -3 -1 -16 -4 -28 -6z"/>
<path d="M842 6688 c-8 -8 -12 -47 -12 -110 0 -88 -2 -101 -26 -135 -25 -37
-26 -42 -20 -143 5 -99 4 -106 -17 -131 -20 -22 -30 -25 -73 -23 -93 7 -114
-5 -180 -105 -28 -42 -35 -60 -30 -83 4 -21 3 -27 -7 -21 -6 4 -22 6 -35 4
-13 -1 -30 3 -38 10 -11 9 -18 9 -26 1 -8 -8 -20 -2 -43 23 -30 31 -38 34 -96
36 -69 2 -113 -7 -104 -21 3 -5 -1 -23 -10 -41 -9 -17 -14 -37 -11 -45 4 -9 2
-12 -5 -8 -6 3 -8 18 -5 33 5 23 5 24 -5 7 -14 -23 -15 -292 -1 -309 5 -7 15
-59 21 -117 20 -193 31 -273 40 -284 5 -6 11 -29 14 -51 8 -70 39 -219 48
-238 5 -9 14 -52 21 -95 6 -42 17 -84 25 -93 7 -8 15 -31 18 -50 9 -53 27
-123 35 -134 11 -16 40 -112 40 -134 0 -11 4 -22 9 -26 5 -3 17 -31 26 -63 8
-31 20 -65 26 -75 5 -10 14 -41 19 -70 6 -29 17 -57 26 -64 9 -7 19 -32 21
-57 3 -26 10 -46 14 -46 5 0 9 -4 9 -10 0 -5 8 -19 18 -30 9 -11 16 -23 14
-25 -1 -3 4 -18 12 -34 9 -16 13 -31 11 -35 -3 -3 -2 -4 2 -1 9 7 35 -46 37
-79 1 -17 8 -32 14 -34 7 -2 19 -19 28 -37 15 -32 18 -34 62 -30 47 3 130 -26
133 -46 1 -5 2 -12 4 -16 13 -51 20 -64 36 -79 10 -9 19 -26 19 -37 0 -37 99
-97 161 -97 28 0 42 -6 57 -25 11 -14 25 -25 30 -25 17 0 82 -41 82 -51 0 -5
7 -17 16 -26 63 -72 80 -143 49 -217 -8 -20 -13 -36 -10 -36 5 0 -21 -25 -63
-60 -7 -6 -9 -16 -5 -23 4 -6 6 -24 5 -39 -2 -18 4 -31 16 -37 10 -5 27 -29
37 -53 10 -24 25 -50 33 -60 12 -15 21 -46 24 -88 1 -8 -2 -35 -6 -60 -4 -28
-4 -40 2 -32 7 11 11 8 15 -10 9 -35 83 -146 136 -203 98 -107 121 -134 121
-143 0 -11 37 -51 215 -232 220 -225 352 -347 452 -420 l41 -30 -1 35 c-1 28
-5 35 -21 36 -17 1 -18 2 -3 6 19 5 22 18 7 28 -25 15 21 88 52 83 10 -2 33
14 55 38 21 22 46 43 56 47 9 3 17 13 17 22 0 8 7 15 15 15 9 0 20 11 27 24 6
14 20 26 32 28 14 2 22 12 24 28 5 35 19 46 27 21 3 -12 13 -21 20 -21 15 0
22 24 23 73 0 23 -4 27 -27 27 -33 0 -41 35 -9 43 11 3 17 10 14 16 -4 6 -4
27 0 47 5 25 9 32 15 22 5 -7 6 2 3 23 -4 22 -2 39 5 43 6 4 11 16 11 26 0 11
9 20 23 23 l22 4 -22 2 c-23 1 -31 25 -13 36 5 3 10 15 10 25 0 10 8 24 18 30
16 9 16 11 -4 28 -27 23 -14 57 16 47 18 -6 18 -4 5 21 -7 14 -11 33 -8 40 3
8 0 14 -7 14 -8 0 -4 13 9 36 21 35 21 37 4 50 -16 12 -16 13 -1 8 22 -7 52
38 43 66 -3 11 -10 18 -14 16 -4 -3 -12 -1 -19 3 -10 6 -8 14 7 33 23 29 19
38 -18 39 -22 0 -23 1 -7 8 25 10 13 17 -44 27 -25 4 -48 9 -52 10 -5 1 -12 2
-17 3 -16 2 1 40 25 56 13 8 24 22 24 31 0 16 56 44 90 44 22 0 28 26 8 33
-10 3 -10 7 0 19 7 9 10 23 6 32 -4 10 -1 16 9 16 13 0 13 5 -1 43 -14 39 -14
46 0 74 20 41 12 82 -18 93 -26 10 -34 50 -10 50 9 0 16 12 18 33 2 26 7 32
26 30 17 -2 22 2 22 22 0 13 -6 28 -13 32 -6 4 -27 26 -46 47 -29 35 -33 44
-28 81 6 43 -4 65 -31 65 -8 0 -12 -6 -8 -15 3 -9 0 -15 -9 -15 -8 0 -15 5
-15 10 0 6 -6 10 -14 10 -9 0 -12 7 -9 20 8 28 -5 70 -21 70 -8 0 -17 10 -20
23 -7 21 -7 22 -17 2 -9 -18 -9 -18 -5 4 3 13 1 34 -4 47 -8 21 -6 24 11 24
12 0 19 5 16 13 -2 6 -14 11 -26 10 -26 -3 -27 8 -1 30 18 15 21 15 26 2 3 -8
10 -12 15 -9 15 9 22 -25 9 -41 -10 -12 -10 -15 3 -15 26 0 30 19 12 56 -10
21 -29 41 -46 48 -31 13 -29 26 4 26 16 0 17 3 7 15 -10 12 -10 18 0 30 14 17
3 38 -16 31 -23 -9 -28 21 -10 58 21 45 21 46 -12 46 -23 0 -31 8 -51 50 -13
28 -30 50 -37 50 -15 0 -19 -26 -5 -34 5 -3 11 -15 14 -26 3 -11 1 -18 -4 -14
-5 3 -9 12 -9 20 0 26 -25 9 -28 -19 -5 -43 -20 -31 -28 21 -3 26 -12 54 -19
62 -7 8 -15 22 -19 30 -3 8 -4 3 -1 -12 6 -30 -11 -38 -33 -16 -9 9 -15 9 -24
0 -16 -16 -29 -15 -27 1 1 6 -1 20 -6 31 -5 12 -3 21 6 27 11 6 6 12 -18 21
-25 9 -33 18 -33 38 0 14 -3 49 -7 79 -4 38 -3 52 5 47 11 -7 42 30 42 51 0 7
-7 13 -15 13 -17 0 -20 25 -5 35 13 8 13 55 0 75 -8 12 -15 11 -49 -7 -23 -12
-43 -18 -46 -12 -4 5 -22 9 -42 9 -26 0 -36 5 -40 20 -3 10 -13 22 -22 25 -10
3 -33 19 -51 35 -19 17 -39 30 -46 30 -8 0 -29 14 -47 30 -19 17 -40 30 -47
30 -14 0 -90 75 -90 90 0 5 -13 10 -28 10 -16 0 -47 13 -70 30 -23 17 -49 30
-57 30 -9 0 -19 10 -24 23 -5 13 -16 29 -25 36 -9 7 -16 19 -16 27 0 18 -30
45 -41 38 -6 -3 -16 0 -24 6 -11 9 -15 9 -15 1 0 -6 -5 -11 -11 -11 -6 0 -9 6
-6 14 3 8 0 17 -7 19 -7 3 -16 18 -19 34 -5 23 -14 32 -46 43 -33 11 -44 22
-65 64 -14 28 -26 47 -26 41 0 -13 -48 -35 -75 -35 -21 0 -55 45 -55 72 0 16
-44 58 -60 58 -6 0 -10 4 -10 10 0 11 89 39 150 46 69 8 75 11 94 55 10 22 16
41 15 42 -2 1 -13 7 -24 13 -15 8 -28 7 -50 -2 -37 -16 -55 -17 -75 -4 -13 9
-11 14 13 34 l29 23 -74 5 c-81 5 -114 20 -121 55 -5 26 7 39 43 48 18 4 25
13 26 30 1 14 -3 25 -10 25 -6 0 -5 4 3 9 10 7 6 11 -17 16 -37 8 -43 22 -47
118 -2 50 -14 107 -39 183 -20 61 -36 114 -36 117 0 8 79 43 128 56 31 9 42
17 42 31 0 29 -68 95 -128 125 -56 28 -54 24 -70 148 -5 42 -15 84 -22 92 -15
18 -42 19 -58 3z m222 -1392 c-6 -16 -8 -17 -16 -2 -11 19 0 42 13 29 6 -6 7
-18 3 -27z m42 20 c17 -17 18 -42 3 -52 -6 -3 -9 -15 -6 -25 3 -11 1 -17 -4
-13 -5 3 -9 -2 -9 -11 0 -9 -4 -13 -10 -10 -5 3 -10 1 -10 -5 0 -7 9 -14 20
-17 23 -6 27 -33 5 -33 -8 0 -15 -5 -15 -11 0 -5 4 -8 10 -4 5 3 16 -7 24 -22
l15 -28 1 33 c0 17 3 33 8 33 47 8 52 6 52 -22 0 -16 5 -29 10 -29 6 0 10 -7
10 -15 0 -8 -5 -15 -10 -15 -6 0 -23 -11 -37 -25 -15 -13 -30 -22 -33 -18 -3
3 1 8 8 10 10 4 10 8 1 19 -16 20 -41 18 -37 -3 1 -10 -1 -19 -5 -20 -21 -8
-27 1 -27 42 0 36 -4 45 -17 46 -17 1 -17 2 0 6 21 5 22 36 2 53 -8 7 -15 18
-15 25 0 8 -6 15 -12 18 -16 5 16 44 44 53 15 4 19 12 15 30 -5 28 -1 30 19
10z m65 -123 c-8 -15 -10 -15 -11 -2 0 17 10 32 18 25 2 -3 -1 -13 -7 -23z
m1199 -997 c0 -8 -4 -18 -10 -21 -5 -3 -10 3 -10 14 0 12 5 21 10 21 6 0 10
-6 10 -14z m95 -155 c3 -5 1 -12 -5 -16 -5 -3 -10 1 -10 9 0 18 6 21 15 7z
m98 -1541 c-3 -11 -7 -20 -9 -20 -2 0 -4 9 -4 20 0 11 4 20 9 20 5 0 7 -9 4
-20z m17 -110 c0 -5 -2 -10 -4 -10 -3 0 -8 5 -11 10 -3 6 -1 10 4 10 6 0 11
-4 11 -10z m0 -225 c0 -10 -10 -15 -30 -15 -29 0 -38 9 -23 23 13 13 53 7 53
-8z m-130 -44 c0 -5 -3 -17 -6 -26 -5 -12 -9 -14 -14 -4 -5 7 -6 18 -3 26 6
15 23 18 23 4z m96 -68 c-10 -10 -19 5 -10 18 6 11 8 11 12 0 2 -7 1 -15 -2
-18z m-96 -189 c0 -8 -5 -12 -10 -9 -6 4 -8 11 -5 16 9 14 15 11 15 -7z"/>
<path d="M5358 6557 c-14 -30 -16 -56 -12 -135 6 -109 7 -116 18 -155 6 -19
13 -26 23 -23 8 3 17 6 19 6 11 0 3 99 -8 102 -9 3 -15 41 -18 124 l-5 119
-17 -38z"/>
<path d="M6972 6496 c-24 -35 -42 -136 -25 -136 14 0 76 125 71 146 -5 29 -22
26 -46 -10z"/>
<path d="M6784 6037 c-21 -32 -227 -175 -314 -218 -60 -29 -137 -54 -158 -50
-8 1 -20 -3 -28 -10 -11 -9 -14 -8 -15 7 -1 11 -1 22 -1 25 1 4 -14 10 -33 13
-26 5 -51 0 -102 -22 -38 -16 -86 -35 -108 -42 -22 -7 -55 -22 -73 -32 -141
-79 -233 -113 -262 -98 -9 5 -22 20 -29 34 -16 30 -67 52 -153 66 -87 14 -118
13 -118 -4 0 -7 -16 -26 -35 -40 -46 -36 -70 -113 -62 -205 7 -87 28 -133 89
-198 l51 -53 -12 -158 c-12 -150 -11 -160 9 -227 12 -38 23 -77 25 -85 2 -8
26 -66 54 -129 28 -62 51 -122 51 -134 0 -20 41 -82 68 -102 11 -9 8 -16 -12
-39 -46 -54 -35 -62 85 -60 103 2 156 15 174 44 3 5 15 44 27 87 11 43 23 86
25 96 3 10 2 17 -3 16 -5 -1 -16 1 -25 5 -8 4 -31 0 -49 -8 -49 -20 -79 -2
-113 67 -15 31 -34 57 -42 59 -9 2 -36 47 -61 102 l-45 99 -1 155 c0 138 1
156 18 171 38 35 169 80 284 96 62 10 131 23 153 31 58 20 67 18 67 -15 0 -43
-28 -160 -50 -207 -22 -48 -17 -80 13 -88 40 -11 54 -6 102 31 27 20 46 30 43
21 -4 -9 -2 -20 4 -26 8 -8 5 -19 -8 -38 -10 -15 -23 -34 -29 -42 -5 -9 -16
-22 -23 -30 -7 -8 -9 -24 -6 -38 4 -14 2 -24 -5 -24 -6 0 -11 -7 -11 -15 0
-37 67 11 92 65 11 25 29 63 39 84 14 28 16 43 8 50 -7 8 -15 5 -25 -8 -8 -11
-14 -16 -14 -11 0 5 6 16 14 24 21 24 48 167 40 217 -9 61 3 102 34 118 15 7
65 16 112 18 152 8 215 63 325 283 11 22 30 53 43 69 13 17 37 59 54 95 65
143 58 225 -21 233 -34 3 -41 0 -57 -25z m52 -69 c-23 -45 -45 -70 -87 -96
-50 -31 -53 -28 -14 14 19 20 51 56 72 79 21 24 39 42 41 40 2 -2 -4 -18 -12
-37z m-622 -240 c13 -64 26 -282 18 -290 -9 -9 -22 123 -22 219 0 23 -4 43 -9
43 -10 0 -21 36 -13 44 11 12 22 5 26 -16z m-594 -131 c52 -30 70 -48 91 -89
20 -40 25 -83 9 -93 -16 -10 -46 16 -59 51 -16 43 -75 100 -133 127 -26 12
-42 24 -36 28 18 11 91 -2 128 -24z"/>
<path d="M420 5994 c0 -8 5 -12 10 -9 6 4 8 11 5 16 -9 14 -15 11 -15 -7z"/>
<path d="M8417 5978 c-9 -36 -18 -145 -21 -253 -2 -55 -6 -107 -9 -115 -3 -8
-10 -82 -16 -165 -5 -82 -19 -226 -31 -320 -11 -93 -21 -189 -21 -213 0 -24
-5 -73 -12 -110 -7 -37 -14 -107 -16 -157 -1 -49 -7 -94 -12 -100 -20 -20 -10
-60 20 -78 55 -32 90 -14 65 34 -8 16 -19 29 -24 29 -18 0 -2 342 18 390 6 17
32 206 35 259 1 19 7 36 12 38 6 2 10 37 9 81 -1 42 3 91 8 107 5 17 11 71 13
120 3 50 9 152 13 227 10 161 5 248 -13 248 -7 0 -15 -10 -18 -22z"/>
<path d="M1146 5867 c-13 -13 -28 -21 -34 -19 -5 1 -13 -2 -17 -7 -7 -12 28
-15 39 -3 4 4 11 7 14 7 18 1 52 27 47 36 -10 15 -24 11 -49 -14z"/>
<path d="M7151 5658 c0 -28 2 -30 9 -13 12 28 12 45 0 45 -5 0 -10 -15 -9 -32z"/>
<path d="M7125 5588 c-2 -13 -3 -43 -2 -68 2 -25 -1 -53 -5 -62 -7 -14 -4 -18
9 -18 15 0 16 -2 3 -10 -9 -6 -10 -10 -3 -10 6 0 14 -12 16 -27 4 -24 5 -22 5
7 0 19 4 74 8 123 6 77 5 87 -9 87 -9 0 -19 -10 -22 -22z"/>
<path d="M9767 5503 c-2 -4 -8 -24 -12 -43 -4 -19 -13 -39 -20 -45 -20 -15
-48 -106 -36 -118 14 -14 46 -4 46 15 0 9 4 20 8 24 4 4 7 17 7 28 0 17 2 18
10 6 8 -13 10 -12 10 3 0 9 -4 17 -10 17 -5 0 -10 6 -10 14 0 8 8 13 18 12 12
-1 16 5 14 19 -2 11 -5 30 -6 42 -3 26 -12 38 -19 26z"/>
<path d="M12330 5430 c0 -13 7 -20 20 -20 12 0 20 7 20 16 0 10 -5 14 -16 10
-8 -3 -12 -2 -9 4 3 6 1 10 -4 10 -6 0 -11 -9 -11 -20z"/>
<path d="M12160 5360 c0 -5 5 -10 10 -10 6 0 10 5 10 10 0 6 -4 10 -10 10 -5
0 -10 -4 -10 -10z"/>
<path d="M12621 5314 c0 -11 3 -14 6 -6 3 7 2 16 -1 19 -3 4 -6 -2 -5 -13z"/>
<path d="M12224 5304 c3 -9 6 -21 6 -27 0 -7 5 -4 11 6 11 18 5 37 -13 37 -5
0 -7 -7 -4 -16z"/>
<path d="M11930 5285 c0 -17 5 -25 13 -22 6 2 12 12 12 22 0 10 -6 20 -12 23
-8 2 -13 -6 -13 -23z"/>
<path d="M7113 5255 c0 -22 2 -30 4 -17 2 12 2 30 0 40 -3 9 -5 -1 -4 -23z"/>
<path d="M11971 5274 c0 -11 3 -14 6 -6 3 7 2 16 -1 19 -3 4 -6 -2 -5 -13z"/>
<path d="M9710 5254 c0 -8 5 -12 10 -9 6 3 10 10 10 16 0 5 -4 9 -10 9 -5 0
-10 -7 -10 -16z"/>
<path d="M9671 5244 c0 -11 3 -14 6 -6 3 7 2 16 -1 19 -3 4 -6 -2 -5 -13z"/>
<path d="M11827 5216 c-4 -10 1 -12 14 -9 23 6 24 9 5 16 -8 3 -17 0 -19 -7z"/>
<path d="M9629 5198 c-54 -102 -288 -388 -317 -388 -5 0 -30 -16 -56 -36 -44
-33 -228 -126 -286 -145 -14 -4 -50 -17 -80 -28 -30 -12 -63 -21 -72 -21 -10
0 -35 -9 -56 -21 l-37 -20 105 7 c130 8 130 8 138 20 4 5 21 9 37 8 17 0 41 7
55 15 18 12 22 12 16 2 -20 -32 103 27 146 71 15 15 39 30 53 34 14 3 23 10
20 14 -3 4 2 11 11 14 8 3 20 19 25 36 7 19 20 32 35 36 13 3 24 14 24 23 0 9
17 25 37 36 21 11 48 36 60 55 28 42 90 110 101 110 15 0 42 41 42 65 0 14 5
25 12 25 6 0 9 3 5 6 -5 5 10 27 41 60 8 8 9 14 3 14 -6 0 -8 7 -5 15 10 26
-43 19 -57 -7z"/>
<path d="M11796 5182 c-2 -4 -1 -14 5 -22 7 -12 9 -10 9 8 0 23 -5 28 -14 14z"/>
<path d="M11740 5106 c0 -14 5 -28 12 -32 6 -4 8 -3 4 4 -3 6 -2 13 4 17 15
10 12 35 -5 35 -9 0 -15 -9 -15 -24z"/>
<path d="M3966 5055 c-8 -21 4 -158 15 -165 4 -3 10 -39 14 -80 3 -41 10 -79
15 -84 10 -10 4 150 -7 167 -3 5 -6 42 -7 83 -2 74 -17 112 -30 79z"/>
<path d="M11601 4874 c0 -11 3 -14 6 -6 3 7 2 16 -1 19 -3 4 -6 -2 -5 -13z"/>
<path d="M6120 4785 c0 -8 5 -15 10 -15 6 0 10 7 10 15 0 8 -4 15 -10 15 -5 0
-10 -7 -10 -15z"/>
<path d="M6085 4720 c4 -6 11 -8 16 -5 14 9 11 15 -7 15 -8 0 -12 -5 -9 -10z"/>
<path d="M11250 4716 c0 -9 5 -16 10 -16 6 0 10 4 10 9 0 6 -4 13 -10 16 -5 3
-10 -1 -10 -9z"/>
<path d="M6000 4625 c0 -16 16 -20 24 -6 3 5 -1 11 -9 15 -9 3 -15 0 -15 -9z"/>
<path d="M2270 4600 c0 -5 5 -10 10 -10 6 0 10 5 10 10 0 6 -4 10 -10 10 -5 0
-10 -4 -10 -10z"/>
<path d="M8582 4520 c-23 -14 -50 -20 -90 -20 -33 0 -66 -6 -77 -14 -16 -12
-13 -14 31 -19 27 -3 54 -2 59 2 6 4 29 13 52 21 23 7 40 17 37 21 -3 5 6 9
20 9 14 0 28 5 31 10 11 17 -28 11 -63 -10z"/>
<path d="M7058 4474 c-5 -4 -8 -30 -7 -58 l1 -51 9 40 c11 44 8 81 -3 69z"/>
<path d="M2216 4441 c-3 -5 1 -11 9 -15 9 -3 15 0 15 9 0 16 -16 20 -24 6z"/>
<path d="M2620 4440 c-13 -8 -12 -10 3 -10 9 0 17 5 17 10 0 12 -1 12 -20 0z"/>
<path d="M2350 4349 c0 -5 9 -9 20 -9 11 0 20 4 20 8 0 4 -9 8 -20 9 -11 1
-20 -2 -20 -8z"/>
<path d="M2467 4323 c-12 -11 -8 -23 8 -23 8 0 15 7 15 15 0 16 -12 20 -23 8z"/>
<path d="M2577 4323 c-4 -3 -7 -11 -7 -17 0 -6 5 -5 12 2 6 6 9 14 7 17 -3 3
-9 2 -12 -2z"/>
<path d="M5520 4300 c8 -5 22 -9 30 -9 10 0 8 3 -5 9 -27 12 -43 12 -25 0z"/>
<path d="M2530 4280 c0 -5 5 -10 10 -10 6 0 10 5 10 10 0 6 -4 10 -10 10 -5 0
-10 -4 -10 -10z"/>
<path d="M5560 4270 c0 -5 5 -10 11 -10 5 0 7 5 4 10 -3 6 -8 10 -11 10 -2 0
-4 -4 -4 -10z"/>
<path d="M2450 4255 c0 -9 5 -15 11 -13 6 2 11 8 11 13 0 5 -5 11 -11 13 -6 2
-11 -4 -11 -13z"/>
<path d="M2611 4244 c0 -11 3 -14 6 -6 3 7 2 16 -1 19 -3 4 -6 -2 -5 -13z"/>
<path d="M2555 4240 c-3 -5 1 -10 9 -10 9 0 16 5 16 10 0 6 -4 10 -9 10 -6 0
-13 -4 -16 -10z"/>
<path d="M2530 4170 c0 -5 5 -10 10 -10 6 0 10 5 10 10 0 6 -4 10 -10 10 -5 0
-10 -4 -10 -10z"/>
<path d="M2596 4033 c-11 -11 -6 -23 8 -23 8 0 17 4 20 9 7 10 -19 23 -28 14z"/>
<path d="M3004 4025 c-8 -20 -1 -47 11 -43 5 2 13 -10 16 -27 5 -24 7 -20 8
21 1 38 -3 53 -14 58 -9 3 -18 -1 -21 -9z"/>
<path d="M3055 3683 c9 -107 18 -171 30 -223 7 -30 16 -67 19 -82 9 -39 33
-35 38 5 5 45 -11 117 -25 117 -7 0 -13 9 -14 20 -1 11 2 20 7 20 14 0 0 83
-17 102 -8 9 -15 33 -15 52 0 24 -5 36 -14 36 -10 0 -13 -12 -9 -47z"/>
<path d="M2750 3329 c0 -5 5 -7 10 -4 6 3 10 8 10 11 0 2 -4 4 -10 4 -5 0 -10
-5 -10 -11z"/>
<path d="M3110 3335 c0 -5 5 -17 10 -25 5 -8 10 -10 10 -5 0 6 -5 17 -10 25
-5 8 -10 11 -10 5z"/>
<path d="M1130 2896 c0 -2 7 -9 15 -16 13 -11 14 -10 9 4 -5 14 -24 23 -24 12z"/>
<path d="M3805 2819 c30 -5 54 -4 59 1 7 7 -12 10 -49 9 l-60 -1 50 -9z"/>
<path d="M3688 2803 c7 -3 16 -2 19 1 4 3 -2 6 -13 5 -11 0 -14 -3 -6 -6z"/>
<path d="M6867 2354 c-11 -12 -8 -59 5 -72 19 -19 28 -14 28 16 0 31 -21 67
-33 56z"/>
<path d="M6255 2303 c-56 -14 -99 -92 -89 -161 8 -53 36 -82 80 -82 52 0 77
-17 121 -83 51 -77 77 -128 120 -237 41 -106 43 -178 9 -312 -30 -115 -55
-175 -93 -219 -36 -43 -56 -79 -44 -79 5 0 11 -8 13 -17 3 -15 5 -15 18 -2 23
22 77 59 87 59 19 0 152 139 173 180 36 71 62 151 69 217 7 66 4 86 -9 78 -5
-3 -11 4 -15 15 -3 11 -10 20 -15 20 -5 0 -17 26 -26 58 -18 61 -125 286 -176
367 -135 214 -139 218 -223 198z m17 -89 l-22 -15 21 -18 c26 -21 18 -41 -15
-41 -28 0 -46 18 -46 47 0 25 24 42 60 43 l24 0 -22 -16z"/>
<path d="M5975 1567 c-117 -34 -174 -110 -180 -240 -4 -105 10 -149 70 -210
80 -82 132 -127 145 -127 6 0 9 -4 5 -9 -3 -6 3 -14 12 -20 15 -7 31 1 81 45
35 30 67 54 72 54 5 0 19 19 30 43 12 23 31 60 43 82 32 58 31 173 -1 235 -34
65 -69 99 -137 131 -65 31 -79 33 -140 16z m113 -76 c62 -33 117 -139 110
-212 l-3 -34 -28 55 c-47 92 -68 123 -114 167 -23 23 -43 44 -43 47 0 6 52 -9
78 -23z"/>
<path d="M6633 1078 c-28 -37 -18 -68 22 -68 37 0 49 14 35 41 -21 38 -41 48
-57 27z"/>
<path d="M6640 964 c0 -17 22 -14 28 4 2 7 -3 12 -12 12 -9 0 -16 -7 -16 -16z"/>
<path d="M6253 941 c-8 -9 -30 -41 -50 -71 -20 -30 -39 -57 -42 -60 -4 -3 -7
-14 -6 -25 0 -21 -6 -31 -39 -68 -32 -35 -45 -86 -39 -159 4 -45 2 -68 -5 -68
-5 0 -8 -9 -5 -20 4 -16 7 -17 19 -5 8 7 14 18 14 24 0 5 10 22 23 38 25 30
54 101 60 146 8 69 40 15 92 -158 15 -49 40 -114 55 -143 24 -46 27 -60 22
-120 -4 -61 -1 -74 27 -130 26 -51 36 -62 56 -62 14 0 34 -6 45 -12 15 -10 22
-10 32 0 6 6 28 12 47 12 27 0 32 3 21 10 -10 6 -11 10 -3 10 9 0 11 11 8 34
-3 27 2 40 22 60 33 33 81 57 89 45 3 -5 10 -6 16 -3 6 4 8 -1 3 -15 -3 -11
-2 -21 3 -21 13 0 32 -47 32 -82 l0 -31 110 6 c60 3 117 10 125 15 15 8 15 10
1 25 -9 8 -16 23 -16 32 0 8 -7 18 -15 21 -19 8 -42 54 -37 77 6 29 28 20 88
-35 81 -76 124 -97 124 -61 0 14 4 13 21 -6 14 -15 25 -19 31 -13 17 17 -21
73 -114 165 -85 84 -89 89 -75 110 28 45 29 76 3 102 -14 14 -34 25 -46 25
-11 0 -20 7 -20 15 0 8 -4 15 -8 15 -5 0 -22 11 -38 25 -16 13 -53 34 -84 46
-30 11 -64 25 -75 29 -11 5 -32 11 -47 14 -33 8 -98 70 -98 94 0 10 -9 28 -21
41 -13 14 -19 30 -16 43 4 13 -2 31 -14 46 -10 14 -19 22 -19 18 0 -3 -17 2
-37 13 -54 27 -200 35 -220 12z m492 -360 c22 -13 64 -36 93 -53 28 -16 52
-33 52 -38 0 -16 -32 -20 -58 -6 -34 17 -139 40 -169 37 -22 -2 -72 27 -73 42
0 5 4 5 10 2 6 -3 7 1 4 9 -3 9 -10 16 -15 16 -5 0 -9 4 -9 9 0 26 107 14 165
-18z"/>
<path d="M6010 939 c0 -5 5 -7 10 -4 6 3 10 8 10 11 0 2 -4 4 -10 4 -5 0 -10
-5 -10 -11z"/>
<path d="M5970 910 c0 -5 7 -7 15 -4 8 4 15 8 15 10 0 2 -7 4 -15 4 -8 0 -15
-4 -15 -10z"/>
<path d="M5902 855 c-7 -8 -9 -15 -4 -15 5 0 15 7 22 15 16 19 -1 19 -18 0z"/>
<path d="M6161 854 c0 -11 3 -14 6 -6 3 7 2 16 -1 19 -3 4 -6 -2 -5 -13z"/>
<path d="M5855 820 c-3 -5 -1 -10 4 -10 6 0 11 5 11 10 0 6 -2 10 -4 10 -3 0
-8 -4 -11 -10z"/>
<path d="M8660 561 c0 -5 5 -13 10 -16 6 -3 10 -2 10 4 0 5 -4 13 -10 16 -5 3
-10 2 -10 -4z"/>
<path d="M8670 520 c0 -5 7 -10 15 -10 8 0 15 5 15 10 0 6 -7 10 -15 10 -8 0
-15 -4 -15 -10z"/>
<path d="M8700 500 c-13 -8 -12 -10 3 -10 9 0 17 5 17 10 0 12 -1 12 -20 0z"/>
<path d="M5090 470 c-13 -8 -13 -10 2 -10 9 0 20 5 23 10 8 13 -5 13 -25 0z"/>
<path d="M6091 444 c0 -11 3 -14 6 -6 3 7 2 16 -1 19 -3 4 -6 -2 -5 -13z"/>
<path d="M6030 413 c-7 -16 -13 -33 -12 -39 1 -6 -10 -9 -28 -6 -35 5 -52 -21
-28 -44 12 -12 19 -10 51 18 22 20 39 46 43 66 8 39 -8 42 -26 5z"/>
<path d="M5820 407 c-14 -7 -26 -23 -28 -35 -3 -20 0 -22 25 -16 15 4 30 10
33 14 3 4 11 9 18 11 10 3 9 9 -5 21 -16 14 -23 15 -43 5z"/>
<path d="M5538 173 c7 -3 16 -2 19 1 4 3 -2 6 -13 5 -11 0 -14 -3 -6 -6z"/>
<path d="M7098 113 c7 -3 16 -2 19 1 4 3 -2 6 -13 5 -11 0 -14 -3 -6 -6z"/>
</g>
</svg>
